<svg width="30" height="30" viewBox="0 0 30 30" fill="none" xmlns="http://www.w3.org/2000/svg">
<path d="M27.864 0H2.143C0.964425 0 0.00683594 0.970982 0.00683594 2.16295V27.8371C0.00683594 29.029 0.964425 30 2.143 30H27.864C29.0425 30 30.0068 29.029 30.0068 27.8371V2.16295C30.0068 0.970982 29.0425 0 27.864 0ZM9.0738 25.7143H4.62737V11.3973H9.0805V25.7143H9.0738ZM6.85059 9.44196C5.42425 9.44196 4.27246 8.28348 4.27246 6.86384C4.27246 5.4442 5.42425 4.28571 6.85059 4.28571C8.27023 4.28571 9.42871 5.4442 9.42871 6.86384C9.42871 8.29018 8.27693 9.44196 6.85059 9.44196ZM25.7412 25.7143H21.2948V18.75C21.2948 17.0893 21.2613 14.9531 18.9845 14.9531C16.6675 14.9531 16.3126 16.7612 16.3126 18.6295V25.7143H11.8662V11.3973H16.1318V13.3527H16.1921C16.7881 12.2277 18.2412 11.0424 20.4042 11.0424C24.9042 11.0424 25.7412 14.0089 25.7412 17.8661V25.7143Z" fill="white"/>
</svg>
