<svg width="27" height="30" viewBox="0 0 27 30" fill="none" xmlns="http://www.w3.org/2000/svg">
<path d="M17.4621 2.22651C17.4621 1.636 17.2275 1.06968 16.8099 0.65213C16.3924 0.234578 15.8261 0 15.2356 0C14.6451 0 14.0787 0.234578 13.6612 0.65213C13.2436 1.06968 13.0091 1.636 13.0091 2.22651V21.33C13.0095 22.1637 12.7627 22.9788 12.2998 23.6722C11.837 24.3656 11.1789 24.9062 10.4087 25.2255C9.63863 25.5449 8.79111 25.6286 7.97337 25.4663C7.15564 25.3039 6.40443 24.9026 5.81476 24.3133C5.22509 23.7239 4.82345 22.9729 4.66064 22.1553C4.49783 21.3376 4.58117 20.4901 4.90011 19.7198C5.21905 18.9495 5.75927 18.2911 6.45243 17.8279C7.1456 17.3647 7.96057 17.1174 8.79427 17.1174C9.38478 17.1174 9.9511 16.8828 10.3687 16.4653C10.7862 16.0477 11.0208 15.4814 11.0208 14.8909C11.0208 14.3004 10.7862 13.7341 10.3687 13.3165C9.9511 12.899 9.38478 12.6644 8.79427 12.6644C7.07994 12.6644 5.40411 13.1727 3.9787 14.1252C2.55329 15.0776 1.44231 16.4313 0.786266 18.0152C0.13022 19.599 -0.0414309 21.3418 0.293018 23.0232C0.627467 24.7046 1.453 26.249 2.66521 27.4613C3.87742 28.6735 5.42188 29.499 7.10327 29.8334C8.78466 30.1679 10.5275 29.9962 12.1113 29.3402C13.6951 28.6842 15.0489 27.5732 16.0013 26.1478C16.9537 24.7224 17.4621 23.0465 17.4621 21.3322V11.4509C19.5424 13.107 22.1239 14.0067 24.7828 14.0025C25.3733 14.0025 25.9397 13.7679 26.3572 13.3504C26.7748 12.9328 27.0093 12.3665 27.0093 11.776C27.0093 11.1855 26.7748 10.6192 26.3572 10.2016C25.9397 9.78408 25.3733 9.5495 24.7828 9.5495C22.8413 9.5495 20.9792 8.77821 19.6063 7.4053C18.2334 6.03239 17.4621 4.17032 17.4621 2.22874V2.22651Z" fill="white"/>
</svg>
