<svg width="38" height="30" viewBox="0 0 38 30" fill="none" xmlns="http://www.w3.org/2000/svg">
<path d="M33.3301 7.47654C33.3535 7.80464 33.3535 8.13283 33.3535 8.46093C33.3535 18.4687 25.7364 30 11.8145 30C7.52538 30 3.54103 28.7578 0.189453 26.6016C0.798851 26.6719 1.38473 26.6953 2.01757 26.6953C5.55658 26.6953 8.81444 25.5 11.416 23.461C8.08788 23.3906 5.29881 21.211 4.33786 18.2109C4.80665 18.2812 5.27536 18.3281 5.7676 18.3281C6.44727 18.3281 7.127 18.2343 7.75977 18.0703C4.29104 17.3671 1.68939 14.3203 1.68939 10.6406V10.5469C2.69717 11.1094 3.86914 11.461 5.11124 11.5078C3.07217 10.1484 1.73629 7.82809 1.73629 5.20307C1.73629 3.79685 2.11122 2.50779 2.76751 1.38278C6.49409 5.97652 12.0957 8.97647 18.3769 9.30466C18.2597 8.74215 18.1894 8.15627 18.1894 7.57032C18.1894 3.3984 21.5644 0 25.7597 0C27.9394 0 29.9081 0.91406 31.2909 2.39062C33.0018 2.06252 34.6424 1.42967 36.0956 0.562504C35.5331 2.32036 34.3378 3.79692 32.7675 4.73435C34.291 4.57037 35.7675 4.1484 37.1269 3.56253C36.0958 5.06246 34.8066 6.39835 33.3301 7.47654Z" fill="white"/>
</svg>
