<svg width="42" height="30" viewBox="0 0 42 30" fill="none" xmlns="http://www.w3.org/2000/svg">
<path fill-rule="evenodd" clip-rule="evenodd" d="M0.332266 6.92437C0.121151 9.61111 0.0135712 12.305 0.00976562 15C0.00976563 18.06 0.159766 20.9381 0.351016 23.325C0.624766 26.7319 3.22164 29.3363 6.57227 29.5688C9.93602 29.8031 14.6441 30 20.6348 30C26.6254 30 31.3335 29.8031 34.6973 29.5688C38.0479 29.3363 40.6448 26.7319 40.9185 23.325C41.1098 20.9381 41.2598 18.06 41.2598 15C41.2598 12.045 41.121 9.2625 40.9373 6.92437C40.8205 5.2423 40.0995 3.65915 38.9073 2.46688C37.715 1.27461 36.1318 0.553621 34.4498 0.436875C31.116 0.200625 26.5673 0 20.6348 0C14.7023 0 10.1516 0.200625 6.81977 0.436875C5.13769 0.553621 3.55454 1.27461 2.36227 2.46688C1.17 3.65915 0.449012 5.2423 0.332266 6.92437ZM27.1973 15L16.8848 9.375V20.625L27.1973 15Z" fill="white"/>
</svg>
